<?xml version="1.0" encoding="utf-8" standalone="no"?>
<!DOCTYPE svg PUBLIC "-//W3C//DTD SVG 1.1//EN"
  "http://www.w3.org/Graphics/SVG/1.1/DTD/svg11.dtd">
<svg xmlns:xlink="http://www.w3.org/1999/xlink" width="720pt" height="432pt" viewBox="0 0 720 432" xmlns="http://www.w3.org/2000/svg" version="1.1">
 <metadata>
  <rdf:RDF xmlns:dc="http://purl.org/dc/elements/1.1/" xmlns:cc="http://creativecommons.org/ns#" xmlns:rdf="http://www.w3.org/1999/02/22-rdf-syntax-ns#">
   <cc:Work>
    <dc:type rdf:resource="http://purl.org/dc/dcmitype/StillImage"/>
    <dc:date>2025-05-29T09:18:34.253852</dc:date>
    <dc:format>image/svg+xml</dc:format>
    <dc:creator>
     <cc:Agent>
      <dc:title>Matplotlib v3.10.3, https://matplotlib.org/</dc:title>
     </cc:Agent>
    </dc:creator>
   </cc:Work>
  </rdf:RDF>
 </metadata>
 <defs>
  <style type="text/css">*{stroke-linejoin: round; stroke-linecap: butt}</style>
 </defs>
 <g id="figure_1">
  <g id="patch_1">
   <path d="M 0 432 
L 720 432 
L 720 0 
L 0 0 
z
" style="fill: #ffffff"/>
  </g>
  <g id="axes_1">
   <g id="patch_2">
    <path d="M 342.492704 81.541122 
C 314.862987 81.541122 287.764376 89.184102 264.206545 103.621205 
C 240.648715 118.058307 221.537337 138.734504 208.994993 163.353417 
L 342.492704 231.365122 
z
" style="fill: #a1c9f4; stroke: #ffffff; stroke-linejoin: miter"/>
   </g>
   <g id="patch_3">
    <path d="M 207.565852 166.006555 
C 196.080053 188.551616 190.490369 213.643102 191.320146 238.93173 
C 192.149932 264.220357 199.372459 288.89145 212.31148 310.635064 
L 341.06356 234.01827 
z
" style="fill: #ffb482; stroke: #ffffff; stroke-linejoin: miter"/>
   </g>
   <g id="patch_4">
    <path d="M 213.748614 313.096551 
C 226.25568 334.114274 243.721002 351.753235 264.61397 364.467608 
C 285.506938 377.18198 309.198818 384.58914 333.613287 386.039932 
L 342.500693 236.479757 
z
" style="fill: #8de5a1; stroke: #ffffff; stroke-linejoin: miter"/>
   </g>
   <g id="patch_5">
    <path d="M 335.781405 386.413829 
C 348.986275 387.198517 362.237099 386.230929 375.187912 383.536355 
C 388.138725 380.841782 400.675823 376.443878 412.471885 370.457452 
L 344.668811 236.853654 
z
" style="fill: #ff9f9b; stroke: #ffffff; stroke-linejoin: miter"/>
   </g>
   <g id="patch_6">
    <path d="M 413.74559 369.853842 
C 423.121708 365.095524 431.970944 359.363394 440.146897 352.752265 
C 448.322849 346.141135 455.780196 338.687663 462.395586 330.515158 
L 345.942516 236.250043 
z
" style="fill: #d0bbff; stroke: #ffffff; stroke-linejoin: miter"/>
   </g>
   <g id="patch_7">
    <path d="M 463.143651 329.617127 
C 468.873494 322.538599 473.946039 314.95237 478.298238 306.952678 
C 482.650436 298.95299 486.264205 290.573117 489.094643 281.917175 
L 346.690582 235.352012 
z
" style="fill: #debb9b; stroke: #ffffff; stroke-linejoin: miter"/>
   </g>
   <g id="patch_8">
    <path d="M 489.392599 281.112336 
C 491.025407 276.118927 492.394452 271.04306 493.494047 265.905836 
C 494.593641 260.768612 495.422266 255.577139 495.976492 250.352867 
L 346.988538 234.547173 
z
" style="fill: #fab0e4; stroke: #ffffff; stroke-linejoin: miter"/>
   </g>
   <g id="patch_9">
    <path d="M 496.042852 249.733495 
C 496.586094 244.612731 496.864984 239.467398 496.878389 234.317917 
C 496.891793 229.168436 496.639711 224.02165 496.123134 218.898128 
L 347.054898 233.927801 
z
" style="fill: #cfcfcf; stroke: #ffffff; stroke-linejoin: miter"/>
   </g>
   <g id="patch_10">
    <path d="M 496.061268 218.284528 
C 495.544692 213.160994 494.764317 208.067494 493.723242 203.024319 
C 492.682167 197.981143 491.381769 192.994994 489.827252 188.085724 
L 346.993032 233.314201 
z
" style="fill: #fffea3; stroke: #ffffff; stroke-linejoin: miter"/>
   </g>
   <g id="patch_11">
    <path d="M 489.648485 187.514981 
C 488.188209 182.903351 486.505464 178.365145 484.606134 173.916313 
C 482.706804 169.46748 480.593131 165.113246 478.272546 160.868906 
L 346.814265 232.743457 
z
" style="fill: #b9f2f0; stroke: #ffffff; stroke-linejoin: miter"/>
   </g>
   <g id="patch_12">
    <path d="M 478.037585 160.42555 
C 476.340971 157.322455 474.535006 154.280371 472.623103 151.305085 
C 470.711199 148.3298 468.694571 145.42316 466.57696 142.590597 
L 346.579304 232.300101 
z
" style="fill: #a1c9f4; stroke: #ffffff; stroke-linejoin: miter"/>
   </g>
   <g id="patch_13">
    <path d="M 474.122077 124.117252 
C 460.172407 105.457827 442.060868 90.306794 421.231108 79.871821 
C 400.401348 69.436848 377.421887 64.002773 354.124513 64.002755 
L 354.124421 213.826755 
z
" style="fill: url(#h90cc8a596c); stroke: #ffffff; stroke-width: 2; stroke-linejoin: miter"/>
   </g>
   <g id="matplotlib.axis_1"/>
   <g id="matplotlib.axis_2"/>
   <g id="text_1">
    <!-- 17.5% -->
    <g transform="translate(264.998209 142.189778) scale(0.12 -0.12)">
     <defs>
      <path id="DejaVuSans-Bold-31" d="M 750 831 
L 1813 831 
L 1813 3847 
L 722 3622 
L 722 4441 
L 1806 4666 
L 2950 4666 
L 2950 831 
L 4013 831 
L 4013 0 
L 750 0 
L 750 831 
z
" transform="scale(0.015625)"/>
      <path id="DejaVuSans-Bold-37" d="M 428 4666 
L 3944 4666 
L 3944 3988 
L 2125 0 
L 953 0 
L 2675 3781 
L 428 3781 
L 428 4666 
z
" transform="scale(0.015625)"/>
      <path id="DejaVuSans-Bold-2e" d="M 653 1209 
L 1778 1209 
L 1778 0 
L 653 0 
L 653 1209 
z
" transform="scale(0.015625)"/>
      <path id="DejaVuSans-Bold-35" d="M 678 4666 
L 3669 4666 
L 3669 3781 
L 1638 3781 
L 1638 3059 
Q 1775 3097 1914 3117 
Q 2053 3138 2203 3138 
Q 3056 3138 3531 2711 
Q 4006 2284 4006 1522 
Q 4006 766 3489 337 
Q 2972 -91 2053 -91 
Q 1656 -91 1267 -14 
Q 878 63 494 219 
L 494 1166 
Q 875 947 1217 837 
Q 1559 728 1863 728 
Q 2300 728 2551 942 
Q 2803 1156 2803 1522 
Q 2803 1891 2551 2103 
Q 2300 2316 1863 2316 
Q 1603 2316 1309 2248 
Q 1016 2181 678 2041 
L 678 4666 
z
" transform="scale(0.015625)"/>
      <path id="DejaVuSans-Bold-25" d="M 4959 1925 
Q 4738 1925 4616 1733 
Q 4494 1541 4494 1184 
Q 4494 825 4614 633 
Q 4734 441 4959 441 
Q 5184 441 5303 633 
Q 5422 825 5422 1184 
Q 5422 1541 5301 1733 
Q 5181 1925 4959 1925 
z
M 4959 2450 
Q 5541 2450 5875 2112 
Q 6209 1775 6209 1184 
Q 6209 594 5875 251 
Q 5541 -91 4959 -91 
Q 4378 -91 4042 251 
Q 3706 594 3706 1184 
Q 3706 1772 4042 2111 
Q 4378 2450 4959 2450 
z
M 2094 -91 
L 1403 -91 
L 4319 4750 
L 5013 4750 
L 2094 -91 
z
M 1453 4750 
Q 2034 4750 2367 4411 
Q 2700 4072 2700 3481 
Q 2700 2891 2367 2550 
Q 2034 2209 1453 2209 
Q 872 2209 539 2550 
Q 206 2891 206 3481 
Q 206 4072 539 4411 
Q 872 4750 1453 4750 
z
M 1453 4225 
Q 1228 4225 1106 4031 
Q 984 3838 984 3481 
Q 984 3122 1106 2926 
Q 1228 2731 1453 2731 
Q 1678 2731 1798 2926 
Q 1919 3122 1919 3481 
Q 1919 3838 1797 4031 
Q 1675 4225 1453 4225 
z
" transform="scale(0.015625)"/>
     </defs>
     <use xlink:href="#DejaVuSans-Bold-31"/>
     <use xlink:href="#DejaVuSans-Bold-37" transform="translate(69.580078 0)"/>
     <use xlink:href="#DejaVuSans-Bold-2e" transform="translate(139.160156 0)"/>
     <use xlink:href="#DejaVuSans-Bold-35" transform="translate(177.148438 0)"/>
     <use xlink:href="#DejaVuSans-Bold-25" transform="translate(246.728516 0)"/>
    </g>
   </g>
   <g id="text_2">
    <!-- 16.0% -->
    <g transform="translate(211.834019 240.886891) scale(0.12 -0.12)">
     <defs>
      <path id="DejaVuSans-Bold-36" d="M 2316 2303 
Q 2000 2303 1842 2098 
Q 1684 1894 1684 1484 
Q 1684 1075 1842 870 
Q 2000 666 2316 666 
Q 2634 666 2792 870 
Q 2950 1075 2950 1484 
Q 2950 1894 2792 2098 
Q 2634 2303 2316 2303 
z
M 3803 4544 
L 3803 3681 
Q 3506 3822 3243 3889 
Q 2981 3956 2731 3956 
Q 2194 3956 1894 3657 
Q 1594 3359 1544 2772 
Q 1750 2925 1990 3001 
Q 2231 3078 2516 3078 
Q 3231 3078 3670 2659 
Q 4109 2241 4109 1563 
Q 4109 813 3618 361 
Q 3128 -91 2303 -91 
Q 1394 -91 895 523 
Q 397 1138 397 2266 
Q 397 3422 980 4083 
Q 1563 4744 2578 4744 
Q 2900 4744 3203 4694 
Q 3506 4644 3803 4544 
z
" transform="scale(0.015625)"/>
      <path id="DejaVuSans-Bold-30" d="M 2944 2338 
Q 2944 3213 2780 3570 
Q 2616 3928 2228 3928 
Q 1841 3928 1675 3570 
Q 1509 3213 1509 2338 
Q 1509 1453 1675 1090 
Q 1841 728 2228 728 
Q 2613 728 2778 1090 
Q 2944 1453 2944 2338 
z
M 4147 2328 
Q 4147 1169 3647 539 
Q 3147 -91 2228 -91 
Q 1306 -91 806 539 
Q 306 1169 306 2328 
Q 306 3491 806 4120 
Q 1306 4750 2228 4750 
Q 3147 4750 3647 4120 
Q 4147 3491 4147 2328 
z
" transform="scale(0.015625)"/>
     </defs>
     <use xlink:href="#DejaVuSans-Bold-31"/>
     <use xlink:href="#DejaVuSans-Bold-36" transform="translate(69.580078 0)"/>
     <use xlink:href="#DejaVuSans-Bold-2e" transform="translate(139.160156 0)"/>
     <use xlink:href="#DejaVuSans-Bold-30" transform="translate(177.148438 0)"/>
     <use xlink:href="#DejaVuSans-Bold-25" transform="translate(246.728516 0)"/>
    </g>
   </g>
   <g id="text_3">
    <!-- 15.5% -->
    <g transform="translate(265.295397 332.454211) scale(0.12 -0.12)">
     <use xlink:href="#DejaVuSans-Bold-31"/>
     <use xlink:href="#DejaVuSans-Bold-35" transform="translate(69.580078 0)"/>
     <use xlink:href="#DejaVuSans-Bold-2e" transform="translate(139.160156 0)"/>
     <use xlink:href="#DejaVuSans-Bold-35" transform="translate(177.148438 0)"/>
     <use xlink:href="#DejaVuSans-Bold-25" transform="translate(246.728516 0)"/>
    </g>
   </g>
   <g id="text_4">
    <!-- 8.4% -->
    <g transform="translate(350.124066 346.36317) scale(0.12 -0.12)">
     <defs>
      <path id="DejaVuSans-Bold-38" d="M 2228 2088 
Q 1891 2088 1709 1903 
Q 1528 1719 1528 1375 
Q 1528 1031 1709 848 
Q 1891 666 2228 666 
Q 2563 666 2741 848 
Q 2919 1031 2919 1375 
Q 2919 1722 2741 1905 
Q 2563 2088 2228 2088 
z
M 1350 2484 
Q 925 2613 709 2878 
Q 494 3144 494 3541 
Q 494 4131 934 4440 
Q 1375 4750 2228 4750 
Q 3075 4750 3515 4442 
Q 3956 4134 3956 3541 
Q 3956 3144 3739 2878 
Q 3522 2613 3097 2484 
Q 3572 2353 3814 2058 
Q 4056 1763 4056 1313 
Q 4056 619 3595 264 
Q 3134 -91 2228 -91 
Q 1319 -91 855 264 
Q 391 619 391 1313 
Q 391 1763 633 2058 
Q 875 2353 1350 2484 
z
M 1631 3419 
Q 1631 3141 1786 2991 
Q 1941 2841 2228 2841 
Q 2509 2841 2662 2991 
Q 2816 3141 2816 3419 
Q 2816 3697 2662 3845 
Q 2509 3994 2228 3994 
Q 1941 3994 1786 3844 
Q 1631 3694 1631 3419 
z
" transform="scale(0.015625)"/>
      <path id="DejaVuSans-Bold-34" d="M 2356 3675 
L 1038 1722 
L 2356 1722 
L 2356 3675 
z
M 2156 4666 
L 3494 4666 
L 3494 1722 
L 4159 1722 
L 4159 850 
L 3494 850 
L 3494 0 
L 2356 0 
L 2356 850 
L 288 850 
L 288 1881 
L 2156 4666 
z
" transform="scale(0.015625)"/>
     </defs>
     <use xlink:href="#DejaVuSans-Bold-38"/>
     <use xlink:href="#DejaVuSans-Bold-2e" transform="translate(69.580078 0)"/>
     <use xlink:href="#DejaVuSans-Bold-34" transform="translate(107.568359 0)"/>
     <use xlink:href="#DejaVuSans-Bold-25" transform="translate(177.148438 0)"/>
    </g>
   </g>
   <g id="text_5">
    <!-- 6.7% -->
    <g transform="translate(397.505902 323.908864) scale(0.12 -0.12)">
     <use xlink:href="#DejaVuSans-Bold-36"/>
     <use xlink:href="#DejaVuSans-Bold-2e" transform="translate(69.580078 0)"/>
     <use xlink:href="#DejaVuSans-Bold-37" transform="translate(107.568359 0)"/>
     <use xlink:href="#DejaVuSans-Bold-25" transform="translate(177.148438 0)"/>
    </g>
   </g>
   <g id="text_6">
    <!-- 5.8% -->
    <g transform="translate(425.333925 290.502101) scale(0.12 -0.12)">
     <use xlink:href="#DejaVuSans-Bold-35"/>
     <use xlink:href="#DejaVuSans-Bold-2e" transform="translate(69.580078 0)"/>
     <use xlink:href="#DejaVuSans-Bold-38" transform="translate(107.568359 0)"/>
     <use xlink:href="#DejaVuSans-Bold-25" transform="translate(177.148438 0)"/>
    </g>
   </g>
   <g id="text_7">
    <!-- 3.3% -->
    <g transform="translate(436.417904 260.562095) scale(0.12 -0.12)">
     <defs>
      <path id="DejaVuSans-Bold-33" d="M 2981 2516 
Q 3453 2394 3698 2092 
Q 3944 1791 3944 1325 
Q 3944 631 3412 270 
Q 2881 -91 1863 -91 
Q 1503 -91 1142 -33 
Q 781 25 428 141 
L 428 1069 
Q 766 900 1098 814 
Q 1431 728 1753 728 
Q 2231 728 2486 893 
Q 2741 1059 2741 1369 
Q 2741 1688 2480 1852 
Q 2219 2016 1709 2016 
L 1228 2016 
L 1228 2791 
L 1734 2791 
Q 2188 2791 2409 2933 
Q 2631 3075 2631 3366 
Q 2631 3634 2415 3781 
Q 2200 3928 1806 3928 
Q 1516 3928 1219 3862 
Q 922 3797 628 3669 
L 628 4550 
Q 984 4650 1334 4700 
Q 1684 4750 2022 4750 
Q 2931 4750 3382 4451 
Q 3834 4153 3834 3553 
Q 3834 3144 3618 2883 
Q 3403 2622 2981 2516 
z
" transform="scale(0.015625)"/>
     </defs>
     <use xlink:href="#DejaVuSans-Bold-33"/>
     <use xlink:href="#DejaVuSans-Bold-2e" transform="translate(69.580078 0)"/>
     <use xlink:href="#DejaVuSans-Bold-33" transform="translate(107.568359 0)"/>
     <use xlink:href="#DejaVuSans-Bold-25" transform="translate(177.148438 0)"/>
    </g>
   </g>
   <g id="text_8">
    <!-- 3.3% -->
    <g transform="translate(438.886481 237.521443) scale(0.12 -0.12)">
     <use xlink:href="#DejaVuSans-Bold-33"/>
     <use xlink:href="#DejaVuSans-Bold-2e" transform="translate(69.580078 0)"/>
     <use xlink:href="#DejaVuSans-Bold-33" transform="translate(107.568359 0)"/>
     <use xlink:href="#DejaVuSans-Bold-25" transform="translate(177.148438 0)"/>
    </g>
   </g>
   <g id="text_9">
    <!-- 3.3% -->
    <g transform="translate(436.585067 214.695526) scale(0.12 -0.12)">
     <use xlink:href="#DejaVuSans-Bold-33"/>
     <use xlink:href="#DejaVuSans-Bold-2e" transform="translate(69.580078 0)"/>
     <use xlink:href="#DejaVuSans-Bold-33" transform="translate(107.568359 0)"/>
     <use xlink:href="#DejaVuSans-Bold-25" transform="translate(177.148438 0)"/>
    </g>
   </g>
   <g id="text_10">
    <!-- 3.1% -->
    <g transform="translate(429.934951 193.463856) scale(0.12 -0.12)">
     <use xlink:href="#DejaVuSans-Bold-33"/>
     <use xlink:href="#DejaVuSans-Bold-2e" transform="translate(69.580078 0)"/>
     <use xlink:href="#DejaVuSans-Bold-31" transform="translate(107.568359 0)"/>
     <use xlink:href="#DejaVuSans-Bold-25" transform="translate(177.148438 0)"/>
    </g>
   </g>
   <g id="text_11">
    <!-- 2.3% -->
    <g transform="translate(421.194415 176.971002) scale(0.12 -0.12)">
     <defs>
      <path id="DejaVuSans-Bold-32" d="M 1844 884 
L 3897 884 
L 3897 0 
L 506 0 
L 506 884 
L 2209 2388 
Q 2438 2594 2547 2791 
Q 2656 2988 2656 3200 
Q 2656 3528 2436 3728 
Q 2216 3928 1850 3928 
Q 1569 3928 1234 3808 
Q 900 3688 519 3450 
L 519 4475 
Q 925 4609 1322 4679 
Q 1719 4750 2100 4750 
Q 2938 4750 3402 4381 
Q 3866 4013 3866 3353 
Q 3866 2972 3669 2642 
Q 3472 2313 2841 1759 
L 1844 884 
z
" transform="scale(0.015625)"/>
     </defs>
     <use xlink:href="#DejaVuSans-Bold-32"/>
     <use xlink:href="#DejaVuSans-Bold-2e" transform="translate(69.580078 0)"/>
     <use xlink:href="#DejaVuSans-Bold-33" transform="translate(107.568359 0)"/>
     <use xlink:href="#DejaVuSans-Bold-25" transform="translate(177.148438 0)"/>
    </g>
   </g>
   <g id="text_12">
    <!-- 14.8% -->
    <g transform="translate(383.639074 116.671782) scale(0.12 -0.12)">
     <use xlink:href="#DejaVuSans-Bold-31"/>
     <use xlink:href="#DejaVuSans-Bold-34" transform="translate(69.580078 0)"/>
     <use xlink:href="#DejaVuSans-Bold-2e" transform="translate(139.160156 0)"/>
     <use xlink:href="#DejaVuSans-Bold-38" transform="translate(177.148438 0)"/>
     <use xlink:href="#DejaVuSans-Bold-25" transform="translate(246.728516 0)"/>
    </g>
   </g>
   <g id="patch_14">
    <path d="M 258.031672 83.750124 
L 265.772265 83.750124 
L 265.772265 104.174942 
" style="fill: none; stroke: #000000; stroke-width: 1.2; stroke-linecap: round"/>
   </g>
   <g id="text_13">
    <!-- Type/Attribute Handling -->
    <g transform="translate(91.727464 87.014499) scale(0.12 -0.12)">
     <defs>
      <path id="DejaVuSans-Bold-54" d="M 31 4666 
L 4331 4666 
L 4331 3756 
L 2784 3756 
L 2784 0 
L 1581 0 
L 1581 3756 
L 31 3756 
L 31 4666 
z
" transform="scale(0.015625)"/>
      <path id="DejaVuSans-Bold-79" d="M 78 3500 
L 1197 3500 
L 2138 1125 
L 2938 3500 
L 4056 3500 
L 2584 -331 
Q 2363 -916 2067 -1148 
Q 1772 -1381 1288 -1381 
L 641 -1381 
L 641 -647 
L 991 -647 
Q 1275 -647 1404 -556 
Q 1534 -466 1606 -231 
L 1638 -134 
L 78 3500 
z
" transform="scale(0.015625)"/>
      <path id="DejaVuSans-Bold-70" d="M 1656 506 
L 1656 -1331 
L 538 -1331 
L 538 3500 
L 1656 3500 
L 1656 2988 
Q 1888 3294 2169 3439 
Q 2450 3584 2816 3584 
Q 3463 3584 3878 3070 
Q 4294 2556 4294 1747 
Q 4294 938 3878 423 
Q 3463 -91 2816 -91 
Q 2450 -91 2169 54 
Q 1888 200 1656 506 
z
M 2400 2772 
Q 2041 2772 1848 2508 
Q 1656 2244 1656 1747 
Q 1656 1250 1848 986 
Q 2041 722 2400 722 
Q 2759 722 2948 984 
Q 3138 1247 3138 1747 
Q 3138 2247 2948 2509 
Q 2759 2772 2400 2772 
z
" transform="scale(0.015625)"/>
      <path id="DejaVuSans-Bold-65" d="M 4031 1759 
L 4031 1441 
L 1416 1441 
Q 1456 1047 1700 850 
Q 1944 653 2381 653 
Q 2734 653 3104 758 
Q 3475 863 3866 1075 
L 3866 213 
Q 3469 63 3072 -14 
Q 2675 -91 2278 -91 
Q 1328 -91 801 392 
Q 275 875 275 1747 
Q 275 2603 792 3093 
Q 1309 3584 2216 3584 
Q 3041 3584 3536 3087 
Q 4031 2591 4031 1759 
z
M 2881 2131 
Q 2881 2450 2695 2645 
Q 2509 2841 2209 2841 
Q 1884 2841 1681 2658 
Q 1478 2475 1428 2131 
L 2881 2131 
z
" transform="scale(0.015625)"/>
      <path id="DejaVuSans-Bold-2f" d="M 1644 4666 
L 2338 4666 
L 691 -594 
L 0 -594 
L 1644 4666 
z
" transform="scale(0.015625)"/>
      <path id="DejaVuSans-Bold-41" d="M 3419 850 
L 1538 850 
L 1241 0 
L 31 0 
L 1759 4666 
L 3194 4666 
L 4922 0 
L 3713 0 
L 3419 850 
z
M 1838 1716 
L 3116 1716 
L 2478 3572 
L 1838 1716 
z
" transform="scale(0.015625)"/>
      <path id="DejaVuSans-Bold-74" d="M 1759 4494 
L 1759 3500 
L 2913 3500 
L 2913 2700 
L 1759 2700 
L 1759 1216 
Q 1759 972 1856 886 
Q 1953 800 2241 800 
L 2816 800 
L 2816 0 
L 1856 0 
Q 1194 0 917 276 
Q 641 553 641 1216 
L 641 2700 
L 84 2700 
L 84 3500 
L 641 3500 
L 641 4494 
L 1759 4494 
z
" transform="scale(0.015625)"/>
      <path id="DejaVuSans-Bold-72" d="M 3138 2547 
Q 2991 2616 2845 2648 
Q 2700 2681 2553 2681 
Q 2122 2681 1889 2404 
Q 1656 2128 1656 1613 
L 1656 0 
L 538 0 
L 538 3500 
L 1656 3500 
L 1656 2925 
Q 1872 3269 2151 3426 
Q 2431 3584 2822 3584 
Q 2878 3584 2943 3579 
Q 3009 3575 3134 3559 
L 3138 2547 
z
" transform="scale(0.015625)"/>
      <path id="DejaVuSans-Bold-69" d="M 538 3500 
L 1656 3500 
L 1656 0 
L 538 0 
L 538 3500 
z
M 538 4863 
L 1656 4863 
L 1656 3950 
L 538 3950 
L 538 4863 
z
" transform="scale(0.015625)"/>
      <path id="DejaVuSans-Bold-62" d="M 2400 722 
Q 2759 722 2948 984 
Q 3138 1247 3138 1747 
Q 3138 2247 2948 2509 
Q 2759 2772 2400 2772 
Q 2041 2772 1848 2508 
Q 1656 2244 1656 1747 
Q 1656 1250 1848 986 
Q 2041 722 2400 722 
z
M 1656 2988 
Q 1888 3294 2169 3439 
Q 2450 3584 2816 3584 
Q 3463 3584 3878 3070 
Q 4294 2556 4294 1747 
Q 4294 938 3878 423 
Q 3463 -91 2816 -91 
Q 2450 -91 2169 54 
Q 1888 200 1656 506 
L 1656 0 
L 538 0 
L 538 4863 
L 1656 4863 
L 1656 2988 
z
" transform="scale(0.015625)"/>
      <path id="DejaVuSans-Bold-75" d="M 500 1363 
L 500 3500 
L 1625 3500 
L 1625 3150 
Q 1625 2866 1622 2436 
Q 1619 2006 1619 1863 
Q 1619 1441 1641 1255 
Q 1663 1069 1716 984 
Q 1784 875 1895 815 
Q 2006 756 2150 756 
Q 2500 756 2700 1025 
Q 2900 1294 2900 1772 
L 2900 3500 
L 4019 3500 
L 4019 0 
L 2900 0 
L 2900 506 
Q 2647 200 2364 54 
Q 2081 -91 1741 -91 
Q 1134 -91 817 281 
Q 500 653 500 1363 
z
" transform="scale(0.015625)"/>
      <path id="DejaVuSans-Bold-20" transform="scale(0.015625)"/>
      <path id="DejaVuSans-Bold-48" d="M 588 4666 
L 1791 4666 
L 1791 2888 
L 3566 2888 
L 3566 4666 
L 4769 4666 
L 4769 0 
L 3566 0 
L 3566 1978 
L 1791 1978 
L 1791 0 
L 588 0 
L 588 4666 
z
" transform="scale(0.015625)"/>
      <path id="DejaVuSans-Bold-61" d="M 2106 1575 
Q 1756 1575 1579 1456 
Q 1403 1338 1403 1106 
Q 1403 894 1545 773 
Q 1688 653 1941 653 
Q 2256 653 2472 879 
Q 2688 1106 2688 1447 
L 2688 1575 
L 2106 1575 
z
M 3816 1997 
L 3816 0 
L 2688 0 
L 2688 519 
Q 2463 200 2181 54 
Q 1900 -91 1497 -91 
Q 953 -91 614 226 
Q 275 544 275 1050 
Q 275 1666 698 1953 
Q 1122 2241 2028 2241 
L 2688 2241 
L 2688 2328 
Q 2688 2594 2478 2717 
Q 2269 2841 1825 2841 
Q 1466 2841 1156 2769 
Q 847 2697 581 2553 
L 581 3406 
Q 941 3494 1303 3539 
Q 1666 3584 2028 3584 
Q 2975 3584 3395 3211 
Q 3816 2838 3816 1997 
z
" transform="scale(0.015625)"/>
      <path id="DejaVuSans-Bold-6e" d="M 4056 2131 
L 4056 0 
L 2931 0 
L 2931 347 
L 2931 1631 
Q 2931 2084 2911 2256 
Q 2891 2428 2841 2509 
Q 2775 2619 2662 2680 
Q 2550 2741 2406 2741 
Q 2056 2741 1856 2470 
Q 1656 2200 1656 1722 
L 1656 0 
L 538 0 
L 538 3500 
L 1656 3500 
L 1656 2988 
Q 1909 3294 2193 3439 
Q 2478 3584 2822 3584 
Q 3428 3584 3742 3212 
Q 4056 2841 4056 2131 
z
" transform="scale(0.015625)"/>
      <path id="DejaVuSans-Bold-64" d="M 2919 2988 
L 2919 4863 
L 4044 4863 
L 4044 0 
L 2919 0 
L 2919 506 
Q 2688 197 2409 53 
Q 2131 -91 1766 -91 
Q 1119 -91 703 423 
Q 288 938 288 1747 
Q 288 2556 703 3070 
Q 1119 3584 1766 3584 
Q 2128 3584 2408 3439 
Q 2688 3294 2919 2988 
z
M 2181 722 
Q 2541 722 2730 984 
Q 2919 1247 2919 1747 
Q 2919 2247 2730 2509 
Q 2541 2772 2181 2772 
Q 1825 2772 1636 2509 
Q 1447 2247 1447 1747 
Q 1447 1247 1636 984 
Q 1825 722 2181 722 
z
" transform="scale(0.015625)"/>
      <path id="DejaVuSans-Bold-6c" d="M 538 4863 
L 1656 4863 
L 1656 0 
L 538 0 
L 538 4863 
z
" transform="scale(0.015625)"/>
      <path id="DejaVuSans-Bold-67" d="M 2919 594 
Q 2688 288 2409 144 
Q 2131 0 1766 0 
Q 1125 0 706 504 
Q 288 1009 288 1791 
Q 288 2575 706 3076 
Q 1125 3578 1766 3578 
Q 2131 3578 2409 3434 
Q 2688 3291 2919 2981 
L 2919 3500 
L 4044 3500 
L 4044 353 
Q 4044 -491 3511 -936 
Q 2978 -1381 1966 -1381 
Q 1638 -1381 1331 -1331 
Q 1025 -1281 716 -1178 
L 716 -306 
Q 1009 -475 1290 -558 
Q 1572 -641 1856 -641 
Q 2406 -641 2662 -400 
Q 2919 -159 2919 353 
L 2919 594 
z
M 2181 2772 
Q 1834 2772 1640 2515 
Q 1447 2259 1447 1791 
Q 1447 1309 1634 1061 
Q 1822 813 2181 813 
Q 2531 813 2725 1069 
Q 2919 1325 2919 1791 
Q 2919 2259 2725 2515 
Q 2531 2772 2181 2772 
z
" transform="scale(0.015625)"/>
     </defs>
     <use xlink:href="#DejaVuSans-Bold-54"/>
     <use xlink:href="#DejaVuSans-Bold-79" transform="translate(56.337891 0)"/>
     <use xlink:href="#DejaVuSans-Bold-70" transform="translate(121.523438 0)"/>
     <use xlink:href="#DejaVuSans-Bold-65" transform="translate(193.105469 0)"/>
     <use xlink:href="#DejaVuSans-Bold-2f" transform="translate(260.927734 0)"/>
     <use xlink:href="#DejaVuSans-Bold-41" transform="translate(297.451172 0)"/>
     <use xlink:href="#DejaVuSans-Bold-74" transform="translate(374.84375 0)"/>
     <use xlink:href="#DejaVuSans-Bold-74" transform="translate(422.646484 0)"/>
     <use xlink:href="#DejaVuSans-Bold-72" transform="translate(470.449219 0)"/>
     <use xlink:href="#DejaVuSans-Bold-69" transform="translate(519.765625 0)"/>
     <use xlink:href="#DejaVuSans-Bold-62" transform="translate(554.042969 0)"/>
     <use xlink:href="#DejaVuSans-Bold-75" transform="translate(625.625 0)"/>
     <use xlink:href="#DejaVuSans-Bold-74" transform="translate(696.816406 0)"/>
     <use xlink:href="#DejaVuSans-Bold-65" transform="translate(744.619141 0)"/>
     <use xlink:href="#DejaVuSans-Bold-20" transform="translate(812.441406 0)"/>
     <use xlink:href="#DejaVuSans-Bold-48" transform="translate(847.255859 0)"/>
     <use xlink:href="#DejaVuSans-Bold-61" transform="translate(930.947266 0)"/>
     <use xlink:href="#DejaVuSans-Bold-6e" transform="translate(998.427734 0)"/>
     <use xlink:href="#DejaVuSans-Bold-64" transform="translate(1069.619141 0)"/>
     <use xlink:href="#DejaVuSans-Bold-6c" transform="translate(1141.201172 0)"/>
     <use xlink:href="#DejaVuSans-Bold-69" transform="translate(1175.478516 0)"/>
     <use xlink:href="#DejaVuSans-Bold-6e" transform="translate(1209.755859 0)"/>
     <use xlink:href="#DejaVuSans-Bold-67" transform="translate(1280.947266 0)"/>
    </g>
   </g>
   <g id="patch_15">
    <path d="M 175.854522 236.259229 
L 194.315014 236.259229 
L 194.315014 236.834911 
" style="fill: none; stroke: #000000; stroke-width: 1.2; stroke-linecap: round"/>
   </g>
   <g id="text_14">
    <!-- Test/Validation Issues -->
    <g transform="translate(24.831009 239.570479) scale(0.12 -0.12)">
     <defs>
      <path id="DejaVuSans-Bold-73" d="M 3272 3391 
L 3272 2541 
Q 2913 2691 2578 2766 
Q 2244 2841 1947 2841 
Q 1628 2841 1473 2761 
Q 1319 2681 1319 2516 
Q 1319 2381 1436 2309 
Q 1553 2238 1856 2203 
L 2053 2175 
Q 2913 2066 3209 1816 
Q 3506 1566 3506 1031 
Q 3506 472 3093 190 
Q 2681 -91 1863 -91 
Q 1516 -91 1145 -36 
Q 775 19 384 128 
L 384 978 
Q 719 816 1070 734 
Q 1422 653 1784 653 
Q 2113 653 2278 743 
Q 2444 834 2444 1013 
Q 2444 1163 2330 1236 
Q 2216 1309 1875 1350 
L 1678 1375 
Q 931 1469 631 1722 
Q 331 1975 331 2491 
Q 331 3047 712 3315 
Q 1094 3584 1881 3584 
Q 2191 3584 2531 3537 
Q 2872 3491 3272 3391 
z
" transform="scale(0.015625)"/>
      <path id="DejaVuSans-Bold-56" d="M 31 4666 
L 1241 4666 
L 2478 1222 
L 3713 4666 
L 4922 4666 
L 3194 0 
L 1759 0 
L 31 4666 
z
" transform="scale(0.015625)"/>
      <path id="DejaVuSans-Bold-6f" d="M 2203 2784 
Q 1831 2784 1636 2517 
Q 1441 2250 1441 1747 
Q 1441 1244 1636 976 
Q 1831 709 2203 709 
Q 2569 709 2762 976 
Q 2956 1244 2956 1747 
Q 2956 2250 2762 2517 
Q 2569 2784 2203 2784 
z
M 2203 3584 
Q 3106 3584 3614 3096 
Q 4122 2609 4122 1747 
Q 4122 884 3614 396 
Q 3106 -91 2203 -91 
Q 1297 -91 786 396 
Q 275 884 275 1747 
Q 275 2609 786 3096 
Q 1297 3584 2203 3584 
z
" transform="scale(0.015625)"/>
      <path id="DejaVuSans-Bold-49" d="M 588 4666 
L 1791 4666 
L 1791 0 
L 588 0 
L 588 4666 
z
" transform="scale(0.015625)"/>
     </defs>
     <use xlink:href="#DejaVuSans-Bold-54"/>
     <use xlink:href="#DejaVuSans-Bold-65" transform="translate(54.962891 0)"/>
     <use xlink:href="#DejaVuSans-Bold-73" transform="translate(122.785156 0)"/>
     <use xlink:href="#DejaVuSans-Bold-74" transform="translate(182.306641 0)"/>
     <use xlink:href="#DejaVuSans-Bold-2f" transform="translate(230.109375 0)"/>
     <use xlink:href="#DejaVuSans-Bold-56" transform="translate(266.632812 0)"/>
     <use xlink:href="#DejaVuSans-Bold-61" transform="translate(338.525391 0)"/>
     <use xlink:href="#DejaVuSans-Bold-6c" transform="translate(406.005859 0)"/>
     <use xlink:href="#DejaVuSans-Bold-69" transform="translate(440.283203 0)"/>
     <use xlink:href="#DejaVuSans-Bold-64" transform="translate(474.560547 0)"/>
     <use xlink:href="#DejaVuSans-Bold-61" transform="translate(546.142578 0)"/>
     <use xlink:href="#DejaVuSans-Bold-74" transform="translate(613.623047 0)"/>
     <use xlink:href="#DejaVuSans-Bold-69" transform="translate(661.425781 0)"/>
     <use xlink:href="#DejaVuSans-Bold-6f" transform="translate(695.703125 0)"/>
     <use xlink:href="#DejaVuSans-Bold-6e" transform="translate(764.404297 0)"/>
     <use xlink:href="#DejaVuSans-Bold-20" transform="translate(835.595703 0)"/>
     <use xlink:href="#DejaVuSans-Bold-49" transform="translate(870.410156 0)"/>
     <use xlink:href="#DejaVuSans-Bold-73" transform="translate(907.617188 0)"/>
     <use xlink:href="#DejaVuSans-Bold-73" transform="translate(967.138672 0)"/>
     <use xlink:href="#DejaVuSans-Bold-75" transform="translate(1026.660156 0)"/>
     <use xlink:href="#DejaVuSans-Bold-65" transform="translate(1097.851562 0)"/>
     <use xlink:href="#DejaVuSans-Bold-73" transform="translate(1165.673828 0)"/>
    </g>
   </g>
   <g id="patch_16">
    <path d="M 258.48729 377.841651 
L 266.171705 377.841651 
L 266.171705 363.911246 
" style="fill: none; stroke: #000000; stroke-width: 1.2; stroke-linecap: round"/>
   </g>
   <g id="text_15">
    <!-- Configuration Issues -->
    <g transform="translate(115.028075 381.106026) scale(0.12 -0.12)">
     <defs>
      <path id="DejaVuSans-Bold-43" d="M 4288 256 
Q 3956 84 3597 -3 
Q 3238 -91 2847 -91 
Q 1681 -91 1000 561 
Q 319 1213 319 2328 
Q 319 3447 1000 4098 
Q 1681 4750 2847 4750 
Q 3238 4750 3597 4662 
Q 3956 4575 4288 4403 
L 4288 3438 
Q 3953 3666 3628 3772 
Q 3303 3878 2944 3878 
Q 2300 3878 1931 3465 
Q 1563 3053 1563 2328 
Q 1563 1606 1931 1193 
Q 2300 781 2944 781 
Q 3303 781 3628 887 
Q 3953 994 4288 1222 
L 4288 256 
z
" transform="scale(0.015625)"/>
      <path id="DejaVuSans-Bold-66" d="M 2841 4863 
L 2841 4128 
L 2222 4128 
Q 1984 4128 1890 4042 
Q 1797 3956 1797 3744 
L 1797 3500 
L 2753 3500 
L 2753 2700 
L 1797 2700 
L 1797 0 
L 678 0 
L 678 2700 
L 122 2700 
L 122 3500 
L 678 3500 
L 678 3744 
Q 678 4316 997 4589 
Q 1316 4863 1984 4863 
L 2841 4863 
z
" transform="scale(0.015625)"/>
     </defs>
     <use xlink:href="#DejaVuSans-Bold-43"/>
     <use xlink:href="#DejaVuSans-Bold-6f" transform="translate(73.388672 0)"/>
     <use xlink:href="#DejaVuSans-Bold-6e" transform="translate(142.089844 0)"/>
     <use xlink:href="#DejaVuSans-Bold-66" transform="translate(213.28125 0)"/>
     <use xlink:href="#DejaVuSans-Bold-69" transform="translate(256.787109 0)"/>
     <use xlink:href="#DejaVuSans-Bold-67" transform="translate(291.064453 0)"/>
     <use xlink:href="#DejaVuSans-Bold-75" transform="translate(362.646484 0)"/>
     <use xlink:href="#DejaVuSans-Bold-72" transform="translate(433.837891 0)"/>
     <use xlink:href="#DejaVuSans-Bold-61" transform="translate(483.154297 0)"/>
     <use xlink:href="#DejaVuSans-Bold-74" transform="translate(550.634766 0)"/>
     <use xlink:href="#DejaVuSans-Bold-69" transform="translate(598.4375 0)"/>
     <use xlink:href="#DejaVuSans-Bold-6f" transform="translate(632.714844 0)"/>
     <use xlink:href="#DejaVuSans-Bold-6e" transform="translate(701.416016 0)"/>
     <use xlink:href="#DejaVuSans-Bold-20" transform="translate(772.607422 0)"/>
     <use xlink:href="#DejaVuSans-Bold-49" transform="translate(807.421875 0)"/>
     <use xlink:href="#DejaVuSans-Bold-73" transform="translate(844.628906 0)"/>
     <use xlink:href="#DejaVuSans-Bold-73" transform="translate(904.150391 0)"/>
     <use xlink:href="#DejaVuSans-Bold-75" transform="translate(963.671875 0)"/>
     <use xlink:href="#DejaVuSans-Bold-65" transform="translate(1034.863281 0)"/>
     <use xlink:href="#DejaVuSans-Bold-73" transform="translate(1102.685547 0)"/>
    </g>
   </g>
   <g id="patch_17">
    <path d="M 375.159656 399.340721 
L 374.577528 399.340721 
L 374.577528 382.601851 
" style="fill: none; stroke: #000000; stroke-width: 1.2; stroke-linecap: round"/>
   </g>
   <g id="text_16">
    <!-- Error/Exception Handling -->
    <g transform="translate(379.155393 402.605096) scale(0.12 -0.12)">
     <defs>
      <path id="DejaVuSans-Bold-45" d="M 588 4666 
L 3834 4666 
L 3834 3756 
L 1791 3756 
L 1791 2888 
L 3713 2888 
L 3713 1978 
L 1791 1978 
L 1791 909 
L 3903 909 
L 3903 0 
L 588 0 
L 588 4666 
z
" transform="scale(0.015625)"/>
      <path id="DejaVuSans-Bold-78" d="M 1422 1791 
L 159 3500 
L 1344 3500 
L 2059 2463 
L 2784 3500 
L 3969 3500 
L 2706 1797 
L 4031 0 
L 2847 0 
L 2059 1106 
L 1281 0 
L 97 0 
L 1422 1791 
z
" transform="scale(0.015625)"/>
      <path id="DejaVuSans-Bold-63" d="M 3366 3391 
L 3366 2478 
Q 3138 2634 2908 2709 
Q 2678 2784 2431 2784 
Q 1963 2784 1702 2511 
Q 1441 2238 1441 1747 
Q 1441 1256 1702 982 
Q 1963 709 2431 709 
Q 2694 709 2930 787 
Q 3166 866 3366 1019 
L 3366 103 
Q 3103 6 2833 -42 
Q 2563 -91 2291 -91 
Q 1344 -91 809 395 
Q 275 881 275 1747 
Q 275 2613 809 3098 
Q 1344 3584 2291 3584 
Q 2566 3584 2833 3536 
Q 3100 3488 3366 3391 
z
" transform="scale(0.015625)"/>
     </defs>
     <use xlink:href="#DejaVuSans-Bold-45"/>
     <use xlink:href="#DejaVuSans-Bold-72" transform="translate(68.310547 0)"/>
     <use xlink:href="#DejaVuSans-Bold-72" transform="translate(117.626953 0)"/>
     <use xlink:href="#DejaVuSans-Bold-6f" transform="translate(166.943359 0)"/>
     <use xlink:href="#DejaVuSans-Bold-72" transform="translate(235.644531 0)"/>
     <use xlink:href="#DejaVuSans-Bold-2f" transform="translate(284.960938 0)"/>
     <use xlink:href="#DejaVuSans-Bold-45" transform="translate(321.484375 0)"/>
     <use xlink:href="#DejaVuSans-Bold-78" transform="translate(389.794922 0)"/>
     <use xlink:href="#DejaVuSans-Bold-63" transform="translate(454.296875 0)"/>
     <use xlink:href="#DejaVuSans-Bold-65" transform="translate(513.574219 0)"/>
     <use xlink:href="#DejaVuSans-Bold-70" transform="translate(581.396484 0)"/>
     <use xlink:href="#DejaVuSans-Bold-74" transform="translate(652.978516 0)"/>
     <use xlink:href="#DejaVuSans-Bold-69" transform="translate(700.78125 0)"/>
     <use xlink:href="#DejaVuSans-Bold-6f" transform="translate(735.058594 0)"/>
     <use xlink:href="#DejaVuSans-Bold-6e" transform="translate(803.759766 0)"/>
     <use xlink:href="#DejaVuSans-Bold-20" transform="translate(874.951172 0)"/>
     <use xlink:href="#DejaVuSans-Bold-48" transform="translate(909.765625 0)"/>
     <use xlink:href="#DejaVuSans-Bold-61" transform="translate(993.457031 0)"/>
     <use xlink:href="#DejaVuSans-Bold-6e" transform="translate(1060.9375 0)"/>
     <use xlink:href="#DejaVuSans-Bold-64" transform="translate(1132.128906 0)"/>
     <use xlink:href="#DejaVuSans-Bold-6c" transform="translate(1203.710938 0)"/>
     <use xlink:href="#DejaVuSans-Bold-69" transform="translate(1237.988281 0)"/>
     <use xlink:href="#DejaVuSans-Bold-6e" transform="translate(1272.265625 0)"/>
     <use xlink:href="#DejaVuSans-Bold-67" transform="translate(1343.457031 0)"/>
    </g>
   </g>
   <g id="patch_18">
    <path d="M 448.393432 364.633117 
L 438.262861 364.633117 
L 438.262861 352.424052 
" style="fill: none; stroke: #000000; stroke-width: 1.2; stroke-linecap: round"/>
   </g>
   <g id="text_17">
    <!-- Data Handling/Serialization -->
    <g transform="translate(452.39352 367.897492) scale(0.12 -0.12)">
     <defs>
      <path id="DejaVuSans-Bold-44" d="M 1791 3756 
L 1791 909 
L 2222 909 
Q 2959 909 3348 1275 
Q 3738 1641 3738 2338 
Q 3738 3031 3350 3393 
Q 2963 3756 2222 3756 
L 1791 3756 
z
M 588 4666 
L 1856 4666 
Q 2919 4666 3439 4514 
Q 3959 4363 4331 4000 
Q 4659 3684 4818 3271 
Q 4978 2859 4978 2338 
Q 4978 1809 4818 1395 
Q 4659 981 4331 666 
Q 3956 303 3431 151 
Q 2906 0 1856 0 
L 588 0 
L 588 4666 
z
" transform="scale(0.015625)"/>
      <path id="DejaVuSans-Bold-53" d="M 3834 4519 
L 3834 3531 
Q 3450 3703 3084 3790 
Q 2719 3878 2394 3878 
Q 1963 3878 1756 3759 
Q 1550 3641 1550 3391 
Q 1550 3203 1689 3098 
Q 1828 2994 2194 2919 
L 2706 2816 
Q 3484 2659 3812 2340 
Q 4141 2022 4141 1434 
Q 4141 663 3683 286 
Q 3225 -91 2284 -91 
Q 1841 -91 1394 -6 
Q 947 78 500 244 
L 500 1259 
Q 947 1022 1364 901 
Q 1781 781 2169 781 
Q 2563 781 2772 912 
Q 2981 1044 2981 1288 
Q 2981 1506 2839 1625 
Q 2697 1744 2272 1838 
L 1806 1941 
Q 1106 2091 782 2419 
Q 459 2747 459 3303 
Q 459 4000 909 4375 
Q 1359 4750 2203 4750 
Q 2588 4750 2994 4692 
Q 3400 4634 3834 4519 
z
" transform="scale(0.015625)"/>
      <path id="DejaVuSans-Bold-7a" d="M 366 3500 
L 3419 3500 
L 3419 2719 
L 1575 800 
L 3419 800 
L 3419 0 
L 288 0 
L 288 781 
L 2131 2700 
L 366 2700 
L 366 3500 
z
" transform="scale(0.015625)"/>
     </defs>
     <use xlink:href="#DejaVuSans-Bold-44"/>
     <use xlink:href="#DejaVuSans-Bold-61" transform="translate(83.007812 0)"/>
     <use xlink:href="#DejaVuSans-Bold-74" transform="translate(150.488281 0)"/>
     <use xlink:href="#DejaVuSans-Bold-61" transform="translate(198.291016 0)"/>
     <use xlink:href="#DejaVuSans-Bold-20" transform="translate(265.771484 0)"/>
     <use xlink:href="#DejaVuSans-Bold-48" transform="translate(300.585938 0)"/>
     <use xlink:href="#DejaVuSans-Bold-61" transform="translate(384.277344 0)"/>
     <use xlink:href="#DejaVuSans-Bold-6e" transform="translate(451.757812 0)"/>
     <use xlink:href="#DejaVuSans-Bold-64" transform="translate(522.949219 0)"/>
     <use xlink:href="#DejaVuSans-Bold-6c" transform="translate(594.53125 0)"/>
     <use xlink:href="#DejaVuSans-Bold-69" transform="translate(628.808594 0)"/>
     <use xlink:href="#DejaVuSans-Bold-6e" transform="translate(663.085938 0)"/>
     <use xlink:href="#DejaVuSans-Bold-67" transform="translate(734.277344 0)"/>
     <use xlink:href="#DejaVuSans-Bold-2f" transform="translate(805.859375 0)"/>
     <use xlink:href="#DejaVuSans-Bold-53" transform="translate(842.382812 0)"/>
     <use xlink:href="#DejaVuSans-Bold-65" transform="translate(914.404297 0)"/>
     <use xlink:href="#DejaVuSans-Bold-72" transform="translate(982.226562 0)"/>
     <use xlink:href="#DejaVuSans-Bold-69" transform="translate(1031.542969 0)"/>
     <use xlink:href="#DejaVuSans-Bold-61" transform="translate(1065.820312 0)"/>
     <use xlink:href="#DejaVuSans-Bold-6c" transform="translate(1133.300781 0)"/>
     <use xlink:href="#DejaVuSans-Bold-69" transform="translate(1167.578125 0)"/>
     <use xlink:href="#DejaVuSans-Bold-7a" transform="translate(1201.855469 0)"/>
     <use xlink:href="#DejaVuSans-Bold-61" transform="translate(1260.058594 0)"/>
     <use xlink:href="#DejaVuSans-Bold-74" transform="translate(1327.539062 0)"/>
     <use xlink:href="#DejaVuSans-Bold-69" transform="translate(1375.341797 0)"/>
     <use xlink:href="#DejaVuSans-Bold-6f" transform="translate(1409.619141 0)"/>
     <use xlink:href="#DejaVuSans-Bold-6e" transform="translate(1478.320312 0)"/>
    </g>
   </g>
   <g id="patch_19">
    <path d="M 491.411874 312.94944 
L 475.66612 312.94944 
L 475.66612 307.51928 
" style="fill: none; stroke: #000000; stroke-width: 1.2; stroke-linecap: round"/>
   </g>
   <g id="text_18">
    <!-- Model/Class Issues -->
    <g transform="translate(495.407278 316.26069) scale(0.12 -0.12)">
     <defs>
      <path id="DejaVuSans-Bold-4d" d="M 588 4666 
L 2119 4666 
L 3181 2169 
L 4250 4666 
L 5778 4666 
L 5778 0 
L 4641 0 
L 4641 3413 
L 3566 897 
L 2803 897 
L 1728 3413 
L 1728 0 
L 588 0 
L 588 4666 
z
" transform="scale(0.015625)"/>
     </defs>
     <use xlink:href="#DejaVuSans-Bold-4d"/>
     <use xlink:href="#DejaVuSans-Bold-6f" transform="translate(99.511719 0)"/>
     <use xlink:href="#DejaVuSans-Bold-64" transform="translate(168.212891 0)"/>
     <use xlink:href="#DejaVuSans-Bold-65" transform="translate(239.794922 0)"/>
     <use xlink:href="#DejaVuSans-Bold-6c" transform="translate(307.617188 0)"/>
     <use xlink:href="#DejaVuSans-Bold-2f" transform="translate(341.894531 0)"/>
     <use xlink:href="#DejaVuSans-Bold-43" transform="translate(378.417969 0)"/>
     <use xlink:href="#DejaVuSans-Bold-6c" transform="translate(451.806641 0)"/>
     <use xlink:href="#DejaVuSans-Bold-61" transform="translate(486.083984 0)"/>
     <use xlink:href="#DejaVuSans-Bold-73" transform="translate(553.564453 0)"/>
     <use xlink:href="#DejaVuSans-Bold-73" transform="translate(613.085938 0)"/>
     <use xlink:href="#DejaVuSans-Bold-20" transform="translate(672.607422 0)"/>
     <use xlink:href="#DejaVuSans-Bold-49" transform="translate(707.421875 0)"/>
     <use xlink:href="#DejaVuSans-Bold-73" transform="translate(744.628906 0)"/>
     <use xlink:href="#DejaVuSans-Bold-73" transform="translate(804.150391 0)"/>
     <use xlink:href="#DejaVuSans-Bold-75" transform="translate(863.671875 0)"/>
     <use xlink:href="#DejaVuSans-Bold-65" transform="translate(934.863281 0)"/>
     <use xlink:href="#DejaVuSans-Bold-73" transform="translate(1002.685547 0)"/>
    </g>
   </g>
   <g id="patch_20">
    <path d="M 508.532804 266.718167 
L 491.954585 266.718167 
" style="fill: none; stroke: #000000; stroke-width: 1.2; stroke-linecap: round"/>
   </g>
   <g id="text_19">
    <!-- Data Processing/Validation -->
    <g transform="translate(512.539754 269.982542) scale(0.12 -0.12)">
     <defs>
      <path id="DejaVuSans-Bold-50" d="M 588 4666 
L 2584 4666 
Q 3475 4666 3951 4270 
Q 4428 3875 4428 3144 
Q 4428 2409 3951 2014 
Q 3475 1619 2584 1619 
L 1791 1619 
L 1791 0 
L 588 0 
L 588 4666 
z
M 1791 3794 
L 1791 2491 
L 2456 2491 
Q 2806 2491 2997 2661 
Q 3188 2831 3188 3144 
Q 3188 3456 2997 3625 
Q 2806 3794 2456 3794 
L 1791 3794 
z
" transform="scale(0.015625)"/>
     </defs>
     <use xlink:href="#DejaVuSans-Bold-44"/>
     <use xlink:href="#DejaVuSans-Bold-61" transform="translate(83.007812 0)"/>
     <use xlink:href="#DejaVuSans-Bold-74" transform="translate(150.488281 0)"/>
     <use xlink:href="#DejaVuSans-Bold-61" transform="translate(198.291016 0)"/>
     <use xlink:href="#DejaVuSans-Bold-20" transform="translate(265.771484 0)"/>
     <use xlink:href="#DejaVuSans-Bold-50" transform="translate(300.585938 0)"/>
     <use xlink:href="#DejaVuSans-Bold-72" transform="translate(373.876953 0)"/>
     <use xlink:href="#DejaVuSans-Bold-6f" transform="translate(423.193359 0)"/>
     <use xlink:href="#DejaVuSans-Bold-63" transform="translate(491.894531 0)"/>
     <use xlink:href="#DejaVuSans-Bold-65" transform="translate(551.171875 0)"/>
     <use xlink:href="#DejaVuSans-Bold-73" transform="translate(618.994141 0)"/>
     <use xlink:href="#DejaVuSans-Bold-73" transform="translate(678.515625 0)"/>
     <use xlink:href="#DejaVuSans-Bold-69" transform="translate(738.037109 0)"/>
     <use xlink:href="#DejaVuSans-Bold-6e" transform="translate(772.314453 0)"/>
     <use xlink:href="#DejaVuSans-Bold-67" transform="translate(843.505859 0)"/>
     <use xlink:href="#DejaVuSans-Bold-2f" transform="translate(915.087891 0)"/>
     <use xlink:href="#DejaVuSans-Bold-56" transform="translate(951.611328 0)"/>
     <use xlink:href="#DejaVuSans-Bold-61" transform="translate(1023.503906 0)"/>
     <use xlink:href="#DejaVuSans-Bold-6c" transform="translate(1090.984375 0)"/>
     <use xlink:href="#DejaVuSans-Bold-69" transform="translate(1125.261719 0)"/>
     <use xlink:href="#DejaVuSans-Bold-64" transform="translate(1159.539062 0)"/>
     <use xlink:href="#DejaVuSans-Bold-61" transform="translate(1231.121094 0)"/>
     <use xlink:href="#DejaVuSans-Bold-74" transform="translate(1298.601562 0)"/>
     <use xlink:href="#DejaVuSans-Bold-69" transform="translate(1346.404297 0)"/>
     <use xlink:href="#DejaVuSans-Bold-6f" transform="translate(1380.681641 0)"/>
     <use xlink:href="#DejaVuSans-Bold-6e" transform="translate(1449.382812 0)"/>
    </g>
   </g>
   <g id="patch_21">
    <path d="M 512.353606 231.104176 
L 493.881919 231.104176 
L 493.881919 232.309508 
" style="fill: none; stroke: #000000; stroke-width: 1.2; stroke-linecap: round"/>
   </g>
   <g id="text_20">
    <!-- String/Representation -->
    <g transform="translate(516.355435 234.368551) scale(0.12 -0.12)">
     <defs>
      <path id="DejaVuSans-Bold-52" d="M 2297 2597 
Q 2675 2597 2839 2737 
Q 3003 2878 3003 3200 
Q 3003 3519 2839 3656 
Q 2675 3794 2297 3794 
L 1791 3794 
L 1791 2597 
L 2297 2597 
z
M 1791 1766 
L 1791 0 
L 588 0 
L 588 4666 
L 2425 4666 
Q 3347 4666 3776 4356 
Q 4206 4047 4206 3378 
Q 4206 2916 3982 2619 
Q 3759 2322 3309 2181 
Q 3556 2125 3751 1926 
Q 3947 1728 4147 1325 
L 4800 0 
L 3519 0 
L 2950 1159 
Q 2778 1509 2601 1637 
Q 2425 1766 2131 1766 
L 1791 1766 
z
" transform="scale(0.015625)"/>
     </defs>
     <use xlink:href="#DejaVuSans-Bold-53"/>
     <use xlink:href="#DejaVuSans-Bold-74" transform="translate(72.021484 0)"/>
     <use xlink:href="#DejaVuSans-Bold-72" transform="translate(119.824219 0)"/>
     <use xlink:href="#DejaVuSans-Bold-69" transform="translate(169.140625 0)"/>
     <use xlink:href="#DejaVuSans-Bold-6e" transform="translate(203.417969 0)"/>
     <use xlink:href="#DejaVuSans-Bold-67" transform="translate(274.609375 0)"/>
     <use xlink:href="#DejaVuSans-Bold-2f" transform="translate(346.191406 0)"/>
     <use xlink:href="#DejaVuSans-Bold-52" transform="translate(382.714844 0)"/>
     <use xlink:href="#DejaVuSans-Bold-65" transform="translate(459.716797 0)"/>
     <use xlink:href="#DejaVuSans-Bold-70" transform="translate(527.539062 0)"/>
     <use xlink:href="#DejaVuSans-Bold-72" transform="translate(599.121094 0)"/>
     <use xlink:href="#DejaVuSans-Bold-65" transform="translate(648.4375 0)"/>
     <use xlink:href="#DejaVuSans-Bold-73" transform="translate(716.259766 0)"/>
     <use xlink:href="#DejaVuSans-Bold-65" transform="translate(775.78125 0)"/>
     <use xlink:href="#DejaVuSans-Bold-6e" transform="translate(843.603516 0)"/>
     <use xlink:href="#DejaVuSans-Bold-74" transform="translate(914.794922 0)"/>
     <use xlink:href="#DejaVuSans-Bold-61" transform="translate(962.597656 0)"/>
     <use xlink:href="#DejaVuSans-Bold-74" transform="translate(1030.078125 0)"/>
     <use xlink:href="#DejaVuSans-Bold-69" transform="translate(1077.880859 0)"/>
     <use xlink:href="#DejaVuSans-Bold-6f" transform="translate(1112.158203 0)"/>
     <use xlink:href="#DejaVuSans-Bold-6e" transform="translate(1180.859375 0)"/>
    </g>
   </g>
   <g id="patch_22">
    <path d="M 508.797148 195.775386 
L 490.788638 195.775386 
L 490.788638 201.631917 
" style="fill: none; stroke: #000000; stroke-width: 1.2; stroke-linecap: round"/>
   </g>
   <g id="text_21">
    <!-- Initialization/Construction -->
    <g transform="translate(512.798159 199.086636) scale(0.12 -0.12)">
     <use xlink:href="#DejaVuSans-Bold-49"/>
     <use xlink:href="#DejaVuSans-Bold-6e" transform="translate(37.207031 0)"/>
     <use xlink:href="#DejaVuSans-Bold-69" transform="translate(108.398438 0)"/>
     <use xlink:href="#DejaVuSans-Bold-74" transform="translate(142.675781 0)"/>
     <use xlink:href="#DejaVuSans-Bold-69" transform="translate(190.478516 0)"/>
     <use xlink:href="#DejaVuSans-Bold-61" transform="translate(224.755859 0)"/>
     <use xlink:href="#DejaVuSans-Bold-6c" transform="translate(292.236328 0)"/>
     <use xlink:href="#DejaVuSans-Bold-69" transform="translate(326.513672 0)"/>
     <use xlink:href="#DejaVuSans-Bold-7a" transform="translate(360.791016 0)"/>
     <use xlink:href="#DejaVuSans-Bold-61" transform="translate(418.994141 0)"/>
     <use xlink:href="#DejaVuSans-Bold-74" transform="translate(486.474609 0)"/>
     <use xlink:href="#DejaVuSans-Bold-69" transform="translate(534.277344 0)"/>
     <use xlink:href="#DejaVuSans-Bold-6f" transform="translate(568.554688 0)"/>
     <use xlink:href="#DejaVuSans-Bold-6e" transform="translate(637.255859 0)"/>
     <use xlink:href="#DejaVuSans-Bold-2f" transform="translate(708.447266 0)"/>
     <use xlink:href="#DejaVuSans-Bold-43" transform="translate(744.970703 0)"/>
     <use xlink:href="#DejaVuSans-Bold-6f" transform="translate(818.359375 0)"/>
     <use xlink:href="#DejaVuSans-Bold-6e" transform="translate(887.060547 0)"/>
     <use xlink:href="#DejaVuSans-Bold-73" transform="translate(958.251953 0)"/>
     <use xlink:href="#DejaVuSans-Bold-74" transform="translate(1017.773438 0)"/>
     <use xlink:href="#DejaVuSans-Bold-72" transform="translate(1065.576172 0)"/>
     <use xlink:href="#DejaVuSans-Bold-75" transform="translate(1114.892578 0)"/>
     <use xlink:href="#DejaVuSans-Bold-63" transform="translate(1186.083984 0)"/>
     <use xlink:href="#DejaVuSans-Bold-74" transform="translate(1245.361328 0)"/>
     <use xlink:href="#DejaVuSans-Bold-69" transform="translate(1293.164062 0)"/>
     <use xlink:href="#DejaVuSans-Bold-6f" transform="translate(1327.441406 0)"/>
     <use xlink:href="#DejaVuSans-Bold-6e" transform="translate(1396.142578 0)"/>
    </g>
   </g>
   <g id="patch_23">
    <path d="M 498.51882 163.004486 
L 481.850323 163.004486 
L 481.850323 173.094907 
" style="fill: none; stroke: #000000; stroke-width: 1.2; stroke-linecap: round"/>
   </g>
   <g id="text_22">
    <!-- File/System Operations -->
    <g transform="translate(502.519098 166.268861) scale(0.12 -0.12)">
     <defs>
      <path id="DejaVuSans-Bold-46" d="M 588 4666 
L 3834 4666 
L 3834 3756 
L 1791 3756 
L 1791 2888 
L 3713 2888 
L 3713 1978 
L 1791 1978 
L 1791 0 
L 588 0 
L 588 4666 
z
" transform="scale(0.015625)"/>
      <path id="DejaVuSans-Bold-6d" d="M 3781 2919 
Q 3994 3244 4286 3414 
Q 4578 3584 4928 3584 
Q 5531 3584 5847 3212 
Q 6163 2841 6163 2131 
L 6163 0 
L 5038 0 
L 5038 1825 
Q 5041 1866 5042 1909 
Q 5044 1953 5044 2034 
Q 5044 2406 4934 2573 
Q 4825 2741 4581 2741 
Q 4263 2741 4089 2478 
Q 3916 2216 3909 1719 
L 3909 0 
L 2784 0 
L 2784 1825 
Q 2784 2406 2684 2573 
Q 2584 2741 2328 2741 
Q 2006 2741 1831 2477 
Q 1656 2213 1656 1722 
L 1656 0 
L 531 0 
L 531 3500 
L 1656 3500 
L 1656 2988 
Q 1863 3284 2130 3434 
Q 2397 3584 2719 3584 
Q 3081 3584 3359 3409 
Q 3638 3234 3781 2919 
z
" transform="scale(0.015625)"/>
      <path id="DejaVuSans-Bold-4f" d="M 2719 3878 
Q 2169 3878 1866 3472 
Q 1563 3066 1563 2328 
Q 1563 1594 1866 1187 
Q 2169 781 2719 781 
Q 3272 781 3575 1187 
Q 3878 1594 3878 2328 
Q 3878 3066 3575 3472 
Q 3272 3878 2719 3878 
z
M 2719 4750 
Q 3844 4750 4481 4106 
Q 5119 3463 5119 2328 
Q 5119 1197 4481 553 
Q 3844 -91 2719 -91 
Q 1597 -91 958 553 
Q 319 1197 319 2328 
Q 319 3463 958 4106 
Q 1597 4750 2719 4750 
z
" transform="scale(0.015625)"/>
     </defs>
     <use xlink:href="#DejaVuSans-Bold-46"/>
     <use xlink:href="#DejaVuSans-Bold-69" transform="translate(68.310547 0)"/>
     <use xlink:href="#DejaVuSans-Bold-6c" transform="translate(102.587891 0)"/>
     <use xlink:href="#DejaVuSans-Bold-65" transform="translate(136.865234 0)"/>
     <use xlink:href="#DejaVuSans-Bold-2f" transform="translate(204.6875 0)"/>
     <use xlink:href="#DejaVuSans-Bold-53" transform="translate(241.210938 0)"/>
     <use xlink:href="#DejaVuSans-Bold-79" transform="translate(313.232422 0)"/>
     <use xlink:href="#DejaVuSans-Bold-73" transform="translate(378.417969 0)"/>
     <use xlink:href="#DejaVuSans-Bold-74" transform="translate(437.939453 0)"/>
     <use xlink:href="#DejaVuSans-Bold-65" transform="translate(485.742188 0)"/>
     <use xlink:href="#DejaVuSans-Bold-6d" transform="translate(553.564453 0)"/>
     <use xlink:href="#DejaVuSans-Bold-20" transform="translate(657.763672 0)"/>
     <use xlink:href="#DejaVuSans-Bold-4f" transform="translate(692.578125 0)"/>
     <use xlink:href="#DejaVuSans-Bold-70" transform="translate(777.587891 0)"/>
     <use xlink:href="#DejaVuSans-Bold-65" transform="translate(849.169922 0)"/>
     <use xlink:href="#DejaVuSans-Bold-72" transform="translate(916.992188 0)"/>
     <use xlink:href="#DejaVuSans-Bold-61" transform="translate(966.308594 0)"/>
     <use xlink:href="#DejaVuSans-Bold-74" transform="translate(1033.789062 0)"/>
     <use xlink:href="#DejaVuSans-Bold-69" transform="translate(1081.591797 0)"/>
     <use xlink:href="#DejaVuSans-Bold-6f" transform="translate(1115.869141 0)"/>
     <use xlink:href="#DejaVuSans-Bold-6e" transform="translate(1184.570312 0)"/>
     <use xlink:href="#DejaVuSans-Bold-73" transform="translate(1255.761719 0)"/>
    </g>
   </g>
   <g id="patch_24">
    <path d="M 485.006345 137.464555 
L 470.102262 137.464555 
L 470.102262 150.928319 
" style="fill: none; stroke: #000000; stroke-width: 1.2; stroke-linecap: round"/>
   </g>
   <g id="text_23">
    <!-- UI/Visualization Issues -->
    <g transform="translate(489.00883 140.775805) scale(0.12 -0.12)">
     <defs>
      <path id="DejaVuSans-Bold-55" d="M 588 4666 
L 1791 4666 
L 1791 1869 
Q 1791 1291 1980 1042 
Q 2169 794 2597 794 
Q 3028 794 3217 1042 
Q 3406 1291 3406 1869 
L 3406 4666 
L 4609 4666 
L 4609 1869 
Q 4609 878 4112 393 
Q 3616 -91 2597 -91 
Q 1581 -91 1084 393 
Q 588 878 588 1869 
L 588 4666 
z
" transform="scale(0.015625)"/>
     </defs>
     <use xlink:href="#DejaVuSans-Bold-55"/>
     <use xlink:href="#DejaVuSans-Bold-49" transform="translate(81.201172 0)"/>
     <use xlink:href="#DejaVuSans-Bold-2f" transform="translate(118.408203 0)"/>
     <use xlink:href="#DejaVuSans-Bold-56" transform="translate(154.931641 0)"/>
     <use xlink:href="#DejaVuSans-Bold-69" transform="translate(230.574219 0)"/>
     <use xlink:href="#DejaVuSans-Bold-73" transform="translate(264.851562 0)"/>
     <use xlink:href="#DejaVuSans-Bold-75" transform="translate(324.373047 0)"/>
     <use xlink:href="#DejaVuSans-Bold-61" transform="translate(395.564453 0)"/>
     <use xlink:href="#DejaVuSans-Bold-6c" transform="translate(463.044922 0)"/>
     <use xlink:href="#DejaVuSans-Bold-69" transform="translate(497.322266 0)"/>
     <use xlink:href="#DejaVuSans-Bold-7a" transform="translate(531.599609 0)"/>
     <use xlink:href="#DejaVuSans-Bold-61" transform="translate(589.802734 0)"/>
     <use xlink:href="#DejaVuSans-Bold-74" transform="translate(657.283203 0)"/>
     <use xlink:href="#DejaVuSans-Bold-69" transform="translate(705.085938 0)"/>
     <use xlink:href="#DejaVuSans-Bold-6f" transform="translate(739.363281 0)"/>
     <use xlink:href="#DejaVuSans-Bold-6e" transform="translate(808.064453 0)"/>
     <use xlink:href="#DejaVuSans-Bold-20" transform="translate(879.255859 0)"/>
     <use xlink:href="#DejaVuSans-Bold-49" transform="translate(914.070312 0)"/>
     <use xlink:href="#DejaVuSans-Bold-73" transform="translate(951.277344 0)"/>
     <use xlink:href="#DejaVuSans-Bold-73" transform="translate(1010.798828 0)"/>
     <use xlink:href="#DejaVuSans-Bold-75" transform="translate(1070.320312 0)"/>
     <use xlink:href="#DejaVuSans-Bold-65" transform="translate(1141.511719 0)"/>
     <use xlink:href="#DejaVuSans-Bold-73" transform="translate(1209.333984 0)"/>
    </g>
   </g>
   <g id="patch_25">
    <path d="M 423.937099 63.165078 
L 411.165115 63.165078 
L 411.165115 97.966043 
" style="fill: none; stroke: #000000; stroke-width: 1.2; stroke-linecap: round"/>
   </g>
   <g id="text_24">
    <!-- Others -->
    <g transform="translate(427.941784 66.476328) scale(0.12 -0.12)">
     <defs>
      <path id="DejaVuSans-Bold-68" d="M 4056 2131 
L 4056 0 
L 2931 0 
L 2931 347 
L 2931 1625 
Q 2931 2084 2911 2256 
Q 2891 2428 2841 2509 
Q 2775 2619 2662 2680 
Q 2550 2741 2406 2741 
Q 2056 2741 1856 2470 
Q 1656 2200 1656 1722 
L 1656 0 
L 538 0 
L 538 4863 
L 1656 4863 
L 1656 2988 
Q 1909 3294 2193 3439 
Q 2478 3584 2822 3584 
Q 3428 3584 3742 3212 
Q 4056 2841 4056 2131 
z
" transform="scale(0.015625)"/>
     </defs>
     <use xlink:href="#DejaVuSans-Bold-4f"/>
     <use xlink:href="#DejaVuSans-Bold-74" transform="translate(85.009766 0)"/>
     <use xlink:href="#DejaVuSans-Bold-68" transform="translate(132.8125 0)"/>
     <use xlink:href="#DejaVuSans-Bold-65" transform="translate(204.003906 0)"/>
     <use xlink:href="#DejaVuSans-Bold-72" transform="translate(271.826172 0)"/>
     <use xlink:href="#DejaVuSans-Bold-73" transform="translate(321.142578 0)"/>
    </g>
   </g>
   <g id="text_25">
    <!-- Effect of Bug -->
    <g transform="translate(270.955303 26.64) scale(0.2 -0.2)">
     <defs>
      <path id="DejaVuSans-Bold-42" d="M 2456 2859 
Q 2741 2859 2887 2984 
Q 3034 3109 3034 3353 
Q 3034 3594 2887 3720 
Q 2741 3847 2456 3847 
L 1791 3847 
L 1791 2859 
L 2456 2859 
z
M 2497 819 
Q 2859 819 3042 972 
Q 3225 1125 3225 1434 
Q 3225 1738 3044 1889 
Q 2863 2041 2497 2041 
L 1791 2041 
L 1791 819 
L 2497 819 
z
M 3616 2497 
Q 4003 2384 4215 2081 
Q 4428 1778 4428 1338 
Q 4428 663 3972 331 
Q 3516 0 2584 0 
L 588 0 
L 588 4666 
L 2394 4666 
Q 3366 4666 3802 4372 
Q 4238 4078 4238 3431 
Q 4238 3091 4078 2852 
Q 3919 2613 3616 2497 
z
" transform="scale(0.015625)"/>
     </defs>
     <use xlink:href="#DejaVuSans-Bold-45"/>
     <use xlink:href="#DejaVuSans-Bold-66" transform="translate(68.310547 0)"/>
     <use xlink:href="#DejaVuSans-Bold-66" transform="translate(111.816406 0)"/>
     <use xlink:href="#DejaVuSans-Bold-65" transform="translate(155.322266 0)"/>
     <use xlink:href="#DejaVuSans-Bold-63" transform="translate(223.144531 0)"/>
     <use xlink:href="#DejaVuSans-Bold-74" transform="translate(282.421875 0)"/>
     <use xlink:href="#DejaVuSans-Bold-20" transform="translate(330.224609 0)"/>
     <use xlink:href="#DejaVuSans-Bold-6f" transform="translate(365.039062 0)"/>
     <use xlink:href="#DejaVuSans-Bold-66" transform="translate(433.740234 0)"/>
     <use xlink:href="#DejaVuSans-Bold-20" transform="translate(477.246094 0)"/>
     <use xlink:href="#DejaVuSans-Bold-42" transform="translate(512.060547 0)"/>
     <use xlink:href="#DejaVuSans-Bold-75" transform="translate(588.28125 0)"/>
     <use xlink:href="#DejaVuSans-Bold-67" transform="translate(659.472656 0)"/>
    </g>
   </g>
  </g>
 </g>
 <defs>
  <pattern id="h90cc8a596c" patternUnits="userSpaceOnUse" x="0" y="0" width="72" height="72">
   <rect x="0" y="0" width="73" height="73" fill="#d95e00"/>
   <path d="M -36 36 
L 36 -36 
M -32 40 
L 40 -32 
M -28 44 
L 44 -28 
M -24 48 
L 48 -24 
M -20 52 
L 52 -20 
M -16 56 
L 56 -16 
M -12 60 
L 60 -12 
M -8 64 
L 64 -8 
M -4 68 
L 68 -4 
M 0 72 
L 72 0 
M 4 76 
L 76 4 
M 8 80 
L 80 8 
M 12 84 
L 84 12 
M 16 88 
L 88 16 
M 20 92 
L 92 20 
M 24 96 
L 96 24 
M 28 100 
L 100 28 
M 32 104 
L 104 32 
M 36 108 
L 108 36 
" style="fill: #ffffff; stroke: #ffffff; stroke-width: 1.0; stroke-linecap: butt; stroke-linejoin: miter"/>
  </pattern>
 </defs>
</svg>
